<svg width="98" height="29" viewBox="0 0 98 29" fill="none" xmlns="http://www.w3.org/2000/svg">
<g id="ragbat_logo" clip-path="url(#clip0_201_6640)">
<g id="Layer 1">
<g id="Group">
<g id="Group_2">
<g id="Group_3">
<path id="Vector" d="M83.3154 6.74419L80.0845 1.01947L77.5962 2.49378L80.8271 8.22634C81.5315 7.55976 82.3737 7.05003 83.3154 6.75203V6.74419Z" fill="#0F0F0F"/>
<path id="Vector_2" d="M78.7523 13.0806C78.7523 12.5709 78.8059 12.0846 78.913 11.6063H72.4512V14.5471H78.913C78.8059 14.0765 78.7523 13.5825 78.7523 13.0727V13.0806Z" fill="#0F0F0F"/>
<path id="Vector_3" d="M80.4824 8.5714L74.8857 5.26204L73.4463 7.81071L79.0354 11.1201C79.3263 10.1555 79.8239 9.29287 80.4747 8.5714H80.4824Z" fill="#0F0F0F"/>
<path id="Vector_4" d="M91.0559 10.1869L96.5225 6.95593L96.0554 6.13251L90.5889 9.36344C90.765 9.62223 90.9181 9.90455 91.0559 10.1869Z" fill="#0F0F0F"/>
<path id="Vector_5" d="M88.8586 7.59112L92.013 1.99188L91.3852 1.59978L88.2231 7.20686C88.4375 7.32449 88.6519 7.44997 88.851 7.59112H88.8586Z" fill="#0F0F0F"/>
<path id="Vector_6" d="M85.2296 6.44619C85.7272 6.44619 86.2019 6.50108 86.6689 6.61087V0H83.7979V6.61871C84.2572 6.50892 84.7396 6.45403 85.2372 6.45403L85.2296 6.44619Z" fill="#0F0F0F"/>
<path id="Vector_7" d="M88.0164 19.0641L91.4694 24.5535L92.5566 23.8478L89.1113 18.3818C88.7668 18.6485 88.3993 18.8759 88.0088 19.0641H88.0164Z" fill="#0F0F0F"/>
<path id="Vector_8" d="M79.0432 15.0411L73.4541 18.3505L74.8935 20.8991L80.4902 17.5898C79.8394 16.8683 79.3418 16.0057 79.0508 15.0411H79.0432Z" fill="#0F0F0F"/>
<path id="Vector_9" d="M91.6685 12.3983C91.6914 12.6258 91.6991 12.8532 91.6991 13.0806C91.6991 13.2374 91.6991 13.4021 91.6838 13.559H98.0002V12.3983H91.6685Z" fill="#0F0F0F"/>
<path id="Vector_10" d="M90.5887 16.7977L96.0553 20.0287L96.5836 19.0249L91.1246 15.7939C90.9715 16.139 90.7878 16.4762 90.5811 16.7899L90.5887 16.7977Z" fill="#0F0F0F"/>
<path id="Vector_11" d="M80.8271 17.9427L77.5962 23.6752L80.0845 25.1495L83.3154 19.4248C82.3737 19.1268 81.5315 18.6171 80.8271 17.9505V17.9427Z" fill="#0F0F0F"/>
<path id="Vector_12" d="M85.2294 19.715C84.7318 19.715 84.2571 19.6601 83.79 19.5503V26.169H86.6611V19.5503C86.2018 19.6601 85.7194 19.715 85.2218 19.715H85.2294Z" fill="#0F0F0F"/>
</g>
<path id="Vector_13" d="M85.2297 16.6252C87.1409 16.6252 88.6903 15.0382 88.6903 13.0806C88.6903 11.1229 87.1409 9.53596 85.2297 9.53596C83.3184 9.53596 81.769 11.1229 81.769 13.0806C81.769 15.0382 83.3184 16.6252 85.2297 16.6252Z" fill="#0F0F0F"/>
</g>
<g id="Group_4">
<path id="Vector_14" d="M26.1232 23.636C22.7774 23.636 20.0518 20.8442 20.0518 17.4172C20.0518 13.9903 22.785 11.2377 26.1385 11.2377C27.0036 11.2377 27.8382 11.4181 28.6191 11.771L28.688 11.8023V11.2299C28.688 9.86533 29.7675 8.7596 31.0997 8.7596H31.9113V12.0611H28.5349V12.1552H28.5732C30.7399 12.7591 32.1869 14.8686 32.1869 17.4094C32.1869 20.8364 29.4613 23.6282 26.1155 23.6282L26.1232 23.636ZM26.1232 14.1628C24.3699 14.1628 22.9458 15.6214 22.9458 17.4172C22.9458 19.2131 24.3699 20.6717 26.1232 20.6717C27.8764 20.6717 29.3005 19.2131 29.3005 17.4172C29.3005 15.6214 27.8764 14.1628 26.1232 14.1628Z" fill="#0F0F0F"/>
<path id="Vector_15" d="M20.7407 25.8788L31.8959 23.7536V26.8748L20.7407 29V25.8788Z" fill="#0F0F0F"/>
<path id="Vector_16" d="M0 23.4713V11.6376H2.68734V13.5433L2.77922 13.5589L2.86344 13.3394C3.16969 12.5708 3.75922 11.9748 4.48656 11.7082C5.20625 11.4416 5.94125 11.4181 6.63797 11.4181H7.08969V14.2804C6.99016 14.2804 6.75281 14.2804 6.75281 14.2804C6.63797 14.2804 6.51547 14.2804 6.40062 14.2804C4.73156 14.2804 2.94766 14.4686 2.94766 16.6958C2.94766 17.5662 2.94766 22.8832 2.94766 23.4713H0Z" fill="#0F0F0F"/>
<path id="Vector_17" d="M13.0309 23.636C12.5562 23.636 10.8871 23.5498 9.44007 22.4675C8.02367 21.401 7.28101 19.762 7.23507 17.5898C7.19679 15.8175 7.81695 14.1314 8.94242 12.9551C9.99132 11.8572 11.4001 11.2769 13.0309 11.2769H13.0921C14.2482 11.2847 15.2894 11.7082 16.1852 12.5316L16.2694 12.6101V11.6376H18.9644V23.4713H16.2694V22.0284L16.1776 22.1539C15.7105 22.8126 14.7994 23.5968 13.1457 23.636C13.1074 23.636 13.0691 23.636 13.0309 23.636ZM13.0998 14.202C11.3465 14.202 9.92242 15.6606 9.92242 17.4565C9.92242 19.2523 11.3465 20.7109 13.0998 20.7109C14.853 20.7109 16.2771 19.2523 16.2771 17.4565C16.2771 15.6606 14.853 14.202 13.0998 14.202Z" fill="#0F0F0F"/>
<path id="Vector_18" d="M39.7129 23.636C39.7129 23.636 39.6363 23.636 39.598 23.636C37.9443 23.5968 37.0332 22.8126 36.5662 22.1539L36.4743 22.0284V23.4713H33.7793V8.76744H36.4743V12.6022L36.5585 12.5238C37.4543 11.7004 38.4955 11.2769 39.6516 11.2691H39.7129C41.3973 11.2691 42.852 11.8729 43.9162 13.0178C45.011 14.1942 45.5852 15.8567 45.501 17.5741C45.2101 23.4557 40.2718 23.6282 39.7052 23.6282L39.7129 23.636ZM39.6516 14.202C37.8984 14.202 36.4743 15.6606 36.4743 17.4565C36.4743 19.2523 37.8984 20.7109 39.6516 20.7109C41.4049 20.7109 42.829 19.2523 42.829 17.4565C42.829 15.6606 41.4049 14.202 39.6516 14.202Z" fill="#0F0F0F"/>
<path id="Vector_19" d="M52.1852 23.636C51.7105 23.636 50.0414 23.5498 48.5944 22.4675C47.178 21.401 46.4353 19.762 46.3894 17.5898C46.3511 15.8175 46.9712 14.1236 48.0891 12.9551C49.138 11.8572 50.5467 11.2769 52.1775 11.2769H52.2387C53.3948 11.2847 54.4361 11.7082 55.3319 12.5316L55.4161 12.6101V11.6376H58.1111V23.4713H55.4161V22.0284L55.3242 22.1539C54.8572 22.8126 53.9461 23.5968 52.2923 23.636C52.2541 23.636 52.2158 23.636 52.1775 23.636H52.1852ZM52.2464 14.202C50.4931 14.202 49.0691 15.6606 49.0691 17.4565C49.0691 19.2523 50.4931 20.7109 52.2464 20.7109C53.9997 20.7109 55.4237 19.2523 55.4237 17.4565C55.4237 15.6606 53.9997 14.202 52.2464 14.202Z" fill="#0F0F0F"/>
<path id="Vector_20" d="M66.7933 13.9746V11.6298H64.1442V8.7596H61.4645V11.6298H58.9609V13.9824H61.4569V14.053C61.4569 14.3118 61.4645 18.1309 61.4645 19.4719C61.4645 22.5381 62.6359 23.6125 64.5577 23.6282C65.4075 23.636 66.1348 23.5341 66.7933 23.3067V20.3659C65.7673 20.6403 64.1595 20.9619 64.1595 19.3542V14.5941C64.0064 14.202 63.2178 14.1001 63.057 14.0844H63.0111V13.9589H66.7933V13.9746Z" fill="#0F0F0F"/>
</g>
</g>
</g>
</g>
<defs>
<clipPath id="clip0_201_6640">
<rect width="98" height="29" fill="white"/>
</clipPath>
</defs>
</svg>
