<svg width="282" height="40" viewBox="0 0 282 40" fill="none" xmlns="http://www.w3.org/2000/svg">
<path d="M0 11.3637C0 5.08767 5.08767 0 11.3637 0H28.6363C34.9123 0 40 5.08767 40 11.3637V28.6363C40 34.9123 34.9123 40 28.6363 40H11.3637C5.08767 40 0 34.9123 0 28.6363V11.3637Z" fill="#01B9F9"/>
<path d="M30.7243 7.59912L17.2936 8.28543C15.0211 8.40156 13.1675 10.1472 12.9154 12.4087L11.8054 22.3652L18.157 22.0273L18.8184 16.0951C18.9222 15.1638 19.6856 14.445 20.6214 14.3972L27.8369 14.0295L30.7243 7.59912Z" fill="white"/>
<path d="M9.31848 32.5829L22.7492 31.8967C25.0217 31.7806 26.8754 30.0349 27.1274 27.7734L28.2374 17.8169L21.8858 18.1549L21.2244 24.0871C21.1207 25.0183 19.812 25.7031 18.8762 25.7508L12.2059 26.1526L9.31848 32.5829Z" fill="white"/>
<path d="M272.361 39.9559C270.605 39.9559 269.069 39.6325 267.753 38.9857C266.435 38.362 265.373 37.4726 264.564 36.3176L267.059 33.8227C267.729 34.6543 268.491 35.278 269.346 35.6939C270.201 36.1097 271.229 36.3176 272.43 36.3176C273.931 36.3176 275.121 35.9249 275.999 35.1395C276.877 34.3771 277.316 33.326 277.316 31.9862V27.8973L277.974 24.2243L277.316 20.5167V16.0467H281.127V31.9862C281.127 33.5801 280.758 34.9662 280.019 36.1443C279.279 37.3456 278.251 38.2811 276.935 38.951C275.618 39.621 274.094 39.9559 272.361 39.9559ZM272.188 32.3327C270.709 32.3327 269.369 31.9746 268.168 31.2585C266.99 30.5193 266.054 29.5144 265.361 28.2439C264.691 26.9733 264.357 25.5527 264.357 23.9818C264.357 22.4109 264.691 21.0018 265.361 19.7544C266.054 18.5069 266.99 17.5251 268.168 16.809C269.369 16.0698 270.709 15.7002 272.188 15.7002C273.504 15.7002 274.66 15.9658 275.653 16.4971C276.646 17.0285 277.42 17.7677 277.974 18.7148C278.529 19.6388 278.806 20.7246 278.806 21.972V26.0609C278.806 27.2852 278.517 28.3709 277.94 29.318C277.385 30.2652 276.611 31.0044 275.618 31.5357C274.624 32.067 273.481 32.3327 272.188 32.3327ZM272.95 28.729C273.874 28.729 274.683 28.5326 275.376 28.1399C276.068 27.7472 276.6 27.2043 276.969 26.5113C277.362 25.7952 277.559 24.9636 277.559 24.0165C277.559 23.0693 277.362 22.2492 276.969 21.5562C276.6 20.8401 276.068 20.2857 275.376 19.8929C274.683 19.5003 273.874 19.3039 272.95 19.3039C272.026 19.3039 271.206 19.5003 270.489 19.8929C269.797 20.2857 269.254 20.8401 268.861 21.5562C268.468 22.2492 268.272 23.0693 268.272 24.0165C268.272 24.9405 268.468 25.7605 268.861 26.4767C269.254 27.1928 269.797 27.7472 270.489 28.1399C271.206 28.5326 272.026 28.729 272.95 28.729Z" fill="#151314"/>
<path d="M258.439 32.6792V23.0809C258.439 21.972 258.081 21.0595 257.365 20.3434C256.672 19.6273 255.772 19.2692 254.662 19.2692C253.923 19.2692 253.265 19.431 252.687 19.7544C252.11 20.0778 251.66 20.5282 251.336 21.1058C251.012 21.6832 250.851 22.3416 250.851 23.0809L249.361 22.2492C249.361 20.9787 249.638 19.8583 250.193 18.8881C250.747 17.8948 251.509 17.1209 252.479 16.5664C253.473 15.9889 254.582 15.7002 255.806 15.7002C257.054 15.7002 258.162 16.0236 259.132 16.6704C260.102 17.2941 260.865 18.1142 261.42 19.1306C261.974 20.124 262.251 21.1635 262.251 22.2492V32.6792H258.439ZM247.039 32.6792V16.0467H250.851V32.6792H247.039Z" fill="#151314"/>
<path d="M239.645 32.6791V16.0466H243.456V32.6791H239.645ZM241.55 12.9973C240.904 12.9973 240.361 12.7778 239.922 12.3389C239.506 11.9 239.298 11.3572 239.298 10.7103C239.298 10.0635 239.506 9.52063 239.922 9.08171C240.361 8.6428 240.904 8.42334 241.55 8.42334C242.22 8.42334 242.763 8.6428 243.179 9.08171C243.595 9.52063 243.803 10.0635 243.803 10.7103C243.803 11.3572 243.595 11.9 243.179 12.3389C242.763 12.7778 242.22 12.9973 241.55 12.9973Z" fill="#151314"/>
<path d="M229.737 32.6789V9.11621H233.548V32.6789H229.737ZM225.752 19.5115V16.0464H237.534V19.5115H225.752Z" fill="#151314"/>
<path d="M219.846 32.6792V7.73047H223.658V32.6792H219.846Z" fill="#151314"/>
<path d="M209.464 33.0254C208.055 33.0254 206.796 32.7136 205.687 32.0898C204.601 31.4661 203.746 30.6114 203.123 29.5256C202.522 28.4168 202.222 27.1463 202.222 25.714V16.0464H206.033V25.5408C206.033 26.3493 206.161 27.0423 206.415 27.6199C206.692 28.1743 207.085 28.6016 207.593 28.9019C208.124 29.2023 208.748 29.3524 209.464 29.3524C210.573 29.3524 211.416 29.029 211.993 28.3822C212.594 27.7122 212.894 26.7651 212.894 25.5408V16.0464H216.706V25.714C216.706 27.1694 216.394 28.4515 215.771 29.5603C215.17 30.646 214.327 31.5008 213.241 32.1245C212.155 32.7251 210.896 33.0254 209.464 33.0254Z" fill="#151314"/>
<path d="M193.882 33.0258C192.958 33.0258 192.068 32.9102 191.214 32.6792C190.359 32.4251 189.574 32.0786 188.858 31.6397C188.141 31.1777 187.517 30.6232 186.986 29.9764L189.412 27.5508C189.989 28.2208 190.647 28.729 191.387 29.0755C192.149 29.3989 193.004 29.5606 193.951 29.5606C194.806 29.5606 195.453 29.4336 195.892 29.1794C196.33 28.9253 196.55 28.5557 196.55 28.0706C196.55 27.5624 196.342 27.1697 195.926 26.8925C195.511 26.6152 194.967 26.3843 194.298 26.1994C193.651 25.9916 192.958 25.7837 192.218 25.5757C191.502 25.3679 190.81 25.0906 190.14 24.7441C189.493 24.3745 188.961 23.8778 188.546 23.2541C188.13 22.6304 187.922 21.8219 187.922 20.8285C187.922 19.7659 188.164 18.8534 188.65 18.0911C189.158 17.3288 189.862 16.7397 190.763 16.3239C191.687 15.9081 192.784 15.7002 194.055 15.7002C195.395 15.7002 196.573 15.9427 197.589 16.4279C198.629 16.8899 199.496 17.5944 200.188 18.5416L197.763 20.9671C197.277 20.3665 196.723 19.9161 196.1 19.6157C195.476 19.3154 194.759 19.1653 193.951 19.1653C193.188 19.1653 192.6 19.2808 192.184 19.5118C191.768 19.7428 191.56 20.0778 191.56 20.5167C191.56 20.9787 191.768 21.3367 192.184 21.5908C192.6 21.8449 193.131 22.0644 193.778 22.2492C194.447 22.434 195.141 22.642 195.857 22.8729C196.596 23.0809 197.29 23.3811 197.936 23.7739C198.606 24.1435 199.148 24.6517 199.565 25.2985C199.98 25.9222 200.188 26.7423 200.188 27.7588C200.188 29.3758 199.622 30.6579 198.49 31.605C197.359 32.5521 195.822 33.0258 193.882 33.0258Z" fill="#151314"/>
<path d="M181.451 32.6792V23.0809C181.451 21.972 181.092 21.0595 180.376 20.3434C179.683 19.6273 178.782 19.2692 177.673 19.2692C176.934 19.2692 176.276 19.431 175.698 19.7544C175.121 20.0778 174.67 20.5282 174.347 21.1058C174.024 21.6832 173.862 22.3416 173.862 23.0809L172.372 22.2492C172.372 20.9787 172.649 19.8583 173.203 18.8881C173.758 17.8948 174.52 17.1209 175.491 16.5664C176.484 15.9889 177.593 15.7002 178.817 15.7002C180.064 15.7002 181.174 16.0236 182.144 16.6704C183.114 17.2941 183.876 18.1142 184.431 19.1306C184.985 20.124 185.262 21.1635 185.262 22.2492V32.6792H181.451ZM170.05 32.6792V16.0467H173.862V32.6792H170.05Z" fill="#151314"/>
<path d="M158.841 33.0258C157.223 33.0258 155.757 32.6445 154.44 31.8822C153.123 31.0968 152.072 30.0458 151.287 28.729C150.524 27.4123 150.143 25.9453 150.143 24.3283C150.143 22.7112 150.524 21.2559 151.287 19.9622C152.072 18.6686 153.123 17.6406 154.44 16.8783C155.757 16.0929 157.223 15.7002 158.841 15.7002C160.481 15.7002 161.959 16.0813 163.276 16.8437C164.593 17.606 165.632 18.6456 166.395 19.9622C167.18 21.2559 167.572 22.7112 167.572 24.3283C167.572 25.9453 167.18 27.4123 166.395 28.729C165.632 30.0458 164.593 31.0968 163.276 31.8822C161.959 32.6445 160.481 33.0258 158.841 33.0258ZM158.841 29.3527C159.788 29.3527 160.619 29.1448 161.336 28.729C162.075 28.2901 162.641 27.6895 163.033 26.9271C163.449 26.1648 163.657 25.2985 163.657 24.3283C163.657 23.3581 163.449 22.5033 163.033 21.7641C162.618 21.0249 162.052 20.4474 161.336 20.0316C160.619 19.5927 159.788 19.3732 158.841 19.3732C157.917 19.3732 157.085 19.5927 156.346 20.0316C155.629 20.4474 155.064 21.0249 154.647 21.7641C154.255 22.5033 154.058 23.3581 154.058 24.3283C154.058 25.2985 154.255 26.1648 154.647 26.9271C155.064 27.6895 155.629 28.2901 156.346 28.729C157.085 29.1448 157.917 29.3527 158.841 29.3527Z" fill="#151314"/>
<path d="M140.304 33.0255C138.549 33.0255 136.919 32.7136 135.418 32.0899C133.94 31.443 132.646 30.5537 131.537 29.4217C130.429 28.2667 129.574 26.9384 128.973 25.4369C128.372 23.9122 128.072 22.2836 128.072 20.551C128.072 18.8185 128.372 17.2015 128.973 15.6999C129.574 14.1752 130.429 12.847 131.537 11.715C132.646 10.5831 133.94 9.69368 135.418 9.0469C136.919 8.40005 138.549 8.07666 140.304 8.07666C142.267 8.07666 143.965 8.40005 145.397 9.0469C146.83 9.69368 148.1 10.5715 149.21 11.6804L146.506 14.3832C145.791 13.5977 144.913 12.9855 143.873 12.5466C142.856 12.1077 141.667 11.8883 140.304 11.8883C139.102 11.8883 138.005 12.0962 137.012 12.512C136.019 12.9278 135.153 13.5285 134.413 14.3139C133.697 15.0762 133.142 15.9887 132.75 17.0513C132.357 18.1139 132.161 19.2805 132.161 20.551C132.161 21.8216 132.357 22.9882 132.75 24.0508C133.142 25.1135 133.697 26.0375 134.413 26.8229C135.153 27.5852 136.019 28.1743 137.012 28.5901C138.005 29.0059 139.102 29.2138 140.304 29.2138C141.782 29.2138 143.03 28.9944 144.046 28.5554C145.085 28.0934 145.963 27.4697 146.68 26.6843L149.382 29.3871C148.274 30.519 146.968 31.4084 145.467 32.0552C143.965 32.702 142.244 33.0255 140.304 33.0255Z" fill="#151314"/>
<path d="M115.128 32.6791V16.0466H118.94V32.6791H115.128ZM117.034 12.9973C116.387 12.9973 115.844 12.7778 115.405 12.3389C114.989 11.9 114.782 11.3572 114.782 10.7103C114.782 10.0635 114.989 9.52063 115.405 9.08171C115.844 8.6428 116.387 8.42334 117.034 8.42334C117.704 8.42334 118.247 8.6428 118.662 9.08171C119.078 9.52063 119.286 10.0635 119.286 10.7103C119.286 11.3572 119.078 11.9 118.662 12.3389C118.247 12.7778 117.704 12.9973 117.034 12.9973Z" fill="#151314"/>
<path d="M104.591 33.0257C103.321 33.0257 102.188 32.7601 101.195 32.2288C100.202 31.6743 99.4169 30.9236 98.8393 29.9764C98.2847 29.0293 98.0074 27.9551 98.0074 26.7539V21.972C98.0074 20.7708 98.2962 19.6966 98.8738 18.7495C99.4515 17.8024 100.237 17.0631 101.23 16.5318C102.224 15.9774 103.344 15.7002 104.591 15.7002C106.093 15.7002 107.444 16.0929 108.645 16.8783C109.87 17.6406 110.828 18.6802 111.521 19.9969C112.237 21.2906 112.596 22.7575 112.596 24.3977C112.596 26.0147 112.237 27.4816 111.521 28.7983C110.828 30.092 109.87 31.12 108.645 31.8823C107.444 32.6446 106.093 33.0257 104.591 33.0257ZM103.967 29.4221C104.891 29.4221 105.7 29.2141 106.393 28.7983C107.109 28.3594 107.664 27.7588 108.056 26.9964C108.472 26.2341 108.68 25.3563 108.68 24.3629C108.68 23.3697 108.472 22.4918 108.056 21.7295C107.664 20.9671 107.109 20.3781 106.393 19.9623C105.7 19.5234 104.891 19.3039 103.967 19.3039C103.043 19.3039 102.224 19.5234 101.507 19.9623C100.791 20.3781 100.237 20.9671 99.844 21.7295C99.4515 22.4918 99.2549 23.3697 99.2549 24.3629C99.2549 25.3563 99.4515 26.2341 99.844 26.9964C100.237 27.7588 100.791 28.3594 101.507 28.7983C102.224 29.2141 103.043 29.4221 103.967 29.4221ZM95.686 32.6792V7.73047H99.4976V20.1356L98.8393 24.1551L99.4976 28.2092V32.6792H95.686Z" fill="#151314"/>
<path d="M88.326 32.6792V7.73047H92.1376V32.6792H88.326Z" fill="#151314"/>
<path d="M78.2373 33.0258C76.5742 33.0258 75.0725 32.6561 73.7329 31.9169C72.4156 31.1546 71.3647 30.115 70.5796 28.7983C69.8169 27.4815 69.4359 26.0031 69.4359 24.363C69.4359 22.7228 69.8169 21.2559 70.5796 19.9622C71.3417 18.6456 72.3695 17.606 73.663 16.8437C74.9803 16.0813 76.4352 15.7002 78.0291 15.7002C79.5769 15.7002 80.9403 16.0582 82.1179 16.7744C83.3193 17.4905 84.2549 18.4723 84.9247 19.7197C85.6183 20.9671 85.9647 22.3879 85.9647 23.9818C85.9647 24.259 85.9417 24.5478 85.8949 24.8481C85.8718 25.1253 85.8257 25.4371 85.7566 25.7837H72.1037V22.6651H83.7817L82.3607 23.9125C82.3146 22.8961 82.1179 22.0413 81.7715 21.3483C81.4251 20.6553 80.9288 20.124 80.282 19.7544C79.6583 19.3847 78.884 19.1999 77.96 19.1999C76.9898 19.1999 76.1464 19.4079 75.4305 19.8237C74.7146 20.2394 74.16 20.8285 73.7674 21.5908C73.3749 22.3301 73.1783 23.2194 73.1783 24.259C73.1783 25.2985 73.3864 26.211 73.802 26.9965C74.2176 27.7819 74.8068 28.394 75.5695 28.8329C76.3315 29.2487 77.2095 29.4567 78.2027 29.4567C79.0576 29.4567 79.8427 29.3065 80.5586 29.0062C81.2983 28.7059 81.922 28.267 82.4298 27.6895L84.8556 30.1497C84.0474 31.0968 83.0651 31.8129 81.9105 32.298C80.7552 32.7832 79.5308 33.0258 78.2373 33.0258Z" fill="#151314"/>
<path d="M59.4271 33.0255C57.5096 33.0255 55.8811 32.679 54.5412 31.9859C53.2014 31.2929 52.0001 30.2765 50.9375 28.9366L53.6403 26.2338C54.3102 27.204 55.1072 27.9664 56.0312 28.5208C56.9553 29.0521 58.1334 29.3177 59.5656 29.3177C60.9055 29.3177 61.9681 29.0406 62.7535 28.4862C63.562 27.9317 63.9663 27.1694 63.9663 26.1992C63.9663 25.3906 63.7584 24.7323 63.3426 24.224C62.9268 23.7158 62.3723 23.3 61.6793 22.9766C61.0094 22.6301 60.2587 22.3298 59.4271 22.0757C58.6185 21.7985 57.7985 21.4982 56.9668 21.1748C56.1582 20.8283 55.4075 20.4009 54.7144 19.8927C54.0446 19.3845 53.5017 18.7261 53.0859 17.9175C52.67 17.1091 52.4622 16.0811 52.4622 14.8336C52.4622 13.4013 52.8087 12.1886 53.5017 11.1952C54.2178 10.1788 55.1765 9.40493 56.3777 8.87361C57.579 8.34229 58.9188 8.07666 60.3972 8.07666C61.9912 8.07666 63.4119 8.38852 64.6593 9.01225C65.9299 9.63598 66.9578 10.4329 67.7433 11.4032L65.0405 14.1059C64.3475 13.3205 63.6198 12.743 62.8575 12.3734C62.1182 11.9807 61.2635 11.7843 60.2933 11.7843C59.0921 11.7843 58.145 12.0269 57.4519 12.512C56.782 12.9971 56.4471 13.6786 56.4471 14.5564C56.4471 15.2956 56.6549 15.8963 57.0707 16.3583C57.4866 16.7972 58.0294 17.1784 58.6993 17.5017C59.3923 17.8021 60.1431 18.0908 60.9517 18.368C61.7833 18.6452 62.6034 18.9571 63.4119 19.3036C64.2435 19.6501 64.9943 20.1006 65.6642 20.655C66.3572 21.1863 66.9117 21.8794 67.3275 22.7341C67.7433 23.5888 67.9512 24.663 67.9512 25.9566C67.9512 28.1281 67.1773 29.8491 65.6296 31.1196C64.105 32.3901 62.0374 33.0255 59.4271 33.0255Z" fill="#151314"/>
</svg>
